<svg width="50" height="30.000000000000004" xmlns="http://www.w3.org/2000/svg" xmlns:svg="http://www.w3.org/2000/svg" class="dicon   " preserveAspectRatio="xMidYMid meet">
 <g>
  <title>Layer 1</title>
  <g id="svg_1" fill-rule="evenodd" fill="#FFFFFF">
   <g id="docker"/>
   <path fill="#ffffff" id="svg_2" d="m42.152633,11.324718c-0.80961,-0.56175 -2.66496,-0.77241 -4.11551,-0.49153c-0.16867,-1.40439 -0.94454,-2.63322 -2.29389,-3.72162l-0.77588,-0.56175l-0.53973,0.80752c-0.67468,1.05329 -1.01201,2.52789 -0.91081,3.93227c0.03373,0.49153 0.2024,1.36927 0.7084,2.14168c-0.47227,0.28088 -1.45054,0.63197 -2.73242,0.63197l-24.38945,0l-0.06747,0.28088c-0.23613,1.40438 -0.23613,5.79307 2.53003,9.16359c2.09149,2.56299 5.19498,3.86205 9.27676,3.86205c8.83822,0 15.38255,-4.24826 18.45232,-11.93725c1.21441,0.03511 3.8119,0 5.12752,-2.63321c0.03373,-0.07022 0.1012,-0.21066 0.33733,-0.7373l0.13494,-0.28088l-0.74214,-0.45642l0,0zm-15.55123,-9.90089l-3.7107,0l0,3.51095l3.7107,0l0,-3.51095l0,0zm0,4.21314l-3.7107,0l0,3.51096l3.7107,0l0,-3.51096l0,0zm-4.38537,0l-3.71071,0l0,3.51096l3.71071,0l0,-3.51096l0,0zm-4.38538,0l-3.71071,0l0,3.51096l3.71071,0l0,-3.51096l0,0zm-4.38538,4.21315l-3.7107,0l0,3.51095l3.7107,0l0,-3.51095l0,0zm4.38538,0l-3.71071,0l0,3.51095l3.71071,0l0,-3.51095l0,0zm4.38538,0l-3.71071,0l0,3.51095l3.71071,0l0,-3.51095l0,0zm4.38537,0l-3.7107,0l0,3.51095l3.7107,0l0,-3.51095l0,0zm4.38538,0l-3.7107,0l0,3.51095l3.7107,0l0,-3.51095l0,0z"/>
  </g>
 </g>
</svg>
